<mxfile host="app.diagrams.net" modified="2023-05-29T17:10:22.071Z" agent="Mozilla/5.0 (Macintosh; Intel Mac OS X 10_15_7) AppleWebKit/605.1.15 (KHTML, like Gecko) Version/16.4 Safari/605.1.15" etag="oHM0G1Gv_nWtD-wTt2dQ" version="21.3.4" type="device">
  <diagram name="Seite-1" id="PTGpSQqXRmZgOnDDLu2M">
    <mxGraphModel dx="1083" dy="712" grid="1" gridSize="10" guides="1" tooltips="1" connect="1" arrows="1" fold="1" page="1" pageScale="1" pageWidth="827" pageHeight="1169" math="0" shadow="0">
      <root>
        <mxCell id="0" />
        <mxCell id="1" parent="0" />
        <mxCell id="5p__dzomKYWyhuQRT6Al-20" value="Mastermind" style="shape=folder;fontStyle=1;spacingTop=0;tabWidth=40;tabHeight=14;tabPosition=left;html=1;whiteSpace=wrap;spacingBottom=310;" vertex="1" parent="1">
          <mxGeometry x="20" y="10" width="790" height="370" as="geometry" />
        </mxCell>
        <mxCell id="5p__dzomKYWyhuQRT6Al-1" value="model" style="shape=folder;fontStyle=1;spacingTop=0;tabWidth=40;tabHeight=14;tabPosition=left;html=1;whiteSpace=wrap;spacingBottom=90;" vertex="1" parent="1">
          <mxGeometry x="30" y="72" width="260" height="149" as="geometry" />
        </mxCell>
        <mxCell id="5p__dzomKYWyhuQRT6Al-2" value="view" style="shape=folder;fontStyle=1;spacingTop=0;tabWidth=40;tabHeight=14;tabPosition=left;html=1;whiteSpace=wrap;spacingBottom=90;" vertex="1" parent="1">
          <mxGeometry x="450" y="61" width="350" height="139" as="geometry" />
        </mxCell>
        <mxCell id="5p__dzomKYWyhuQRT6Al-9" value="control" style="shape=folder;fontStyle=1;spacingTop=0;tabWidth=40;tabHeight=14;tabPosition=left;html=1;whiteSpace=wrap;spacingBottom=40;" vertex="1" parent="1">
          <mxGeometry x="210" y="280" width="350" height="90" as="geometry" />
        </mxCell>
        <mxCell id="5p__dzomKYWyhuQRT6Al-11" value="Config" style="html=1;whiteSpace=wrap;" vertex="1" parent="1">
          <mxGeometry x="85" y="121" width="50" height="40" as="geometry" />
        </mxCell>
        <mxCell id="5p__dzomKYWyhuQRT6Al-12" value="GameLogic" style="html=1;whiteSpace=wrap;" vertex="1" parent="1">
          <mxGeometry x="145" y="121" width="90" height="40" as="geometry" />
        </mxCell>
        <mxCell id="5p__dzomKYWyhuQRT6Al-13" value="MainGUI" style="html=1;whiteSpace=wrap;" vertex="1" parent="1">
          <mxGeometry x="460" y="126" width="80" height="40" as="geometry" />
        </mxCell>
        <mxCell id="5p__dzomKYWyhuQRT6Al-14" value="components" style="shape=folder;fontStyle=1;spacingTop=0;tabWidth=40;tabHeight=14;tabPosition=left;html=1;whiteSpace=wrap;spacingBottom=40;" vertex="1" parent="1">
          <mxGeometry x="560" y="101" width="230" height="90" as="geometry" />
        </mxCell>
        <mxCell id="5p__dzomKYWyhuQRT6Al-15" value="BoardGUI" style="html=1;whiteSpace=wrap;" vertex="1" parent="1">
          <mxGeometry x="580" y="142" width="80" height="30" as="geometry" />
        </mxCell>
        <mxCell id="5p__dzomKYWyhuQRT6Al-16" value="MenuGUI" style="html=1;whiteSpace=wrap;" vertex="1" parent="1">
          <mxGeometry x="690" y="142" width="80" height="30" as="geometry" />
        </mxCell>
        <mxCell id="5p__dzomKYWyhuQRT6Al-21" value="Main" style="html=1;whiteSpace=wrap;" vertex="1" parent="1">
          <mxGeometry x="333" y="200" width="80" height="40" as="geometry" />
        </mxCell>
        <mxCell id="5p__dzomKYWyhuQRT6Al-18" value="CoderController" style="html=1;whiteSpace=wrap;" vertex="1" parent="1">
          <mxGeometry x="440" y="320" width="110" height="40" as="geometry" />
        </mxCell>
        <mxCell id="5p__dzomKYWyhuQRT6Al-17" value="GuesserController" style="html=1;whiteSpace=wrap;" vertex="1" parent="1">
          <mxGeometry x="310" y="320" width="120" height="40" as="geometry" />
        </mxCell>
        <mxCell id="5p__dzomKYWyhuQRT6Al-23" value="Controller" style="html=1;whiteSpace=wrap;" vertex="1" parent="1">
          <mxGeometry x="220" y="320" width="80" height="40" as="geometry" />
        </mxCell>
        <mxCell id="5p__dzomKYWyhuQRT6Al-25" value="CoderLogic" style="html=1;whiteSpace=wrap;" vertex="1" parent="1">
          <mxGeometry x="170" y="174" width="110" height="40" as="geometry" />
        </mxCell>
        <mxCell id="5p__dzomKYWyhuQRT6Al-26" value="GuesserLogic" style="html=1;whiteSpace=wrap;" vertex="1" parent="1">
          <mxGeometry x="40" y="174" width="120" height="40" as="geometry" />
        </mxCell>
      </root>
    </mxGraphModel>
  </diagram>
</mxfile>
